<svg id="Capa_1" data-name="Capa 1" xmlns="http://www.w3.org/2000/svg" viewBox="0 0 61.64 64.89"><defs><style>.cls-1{fill:#fff;}</style></defs><title>arroba</title><path class="cls-1" d="M63.61,59.24A28.63,28.63,0,0,1,58.56,66a31.46,31.46,0,0,1-6.63,5,32.18,32.18,0,0,1-7.75,3.13,32.85,32.85,0,0,1-8.3,1.07,32.17,32.17,0,0,1-23.11-9.59A32.83,32.83,0,0,1,3.42,42.46,30.92,30.92,0,0,1,6,29.92a32.7,32.7,0,0,1,7-10.23A33.13,33.13,0,0,1,23.2,12.8a30.65,30.65,0,0,1,12.33-2.53,32.82,32.82,0,0,1,11.56,2,28.87,28.87,0,0,1,9.37,5.61,26.45,26.45,0,0,1,6.29,8.56,25.44,25.44,0,0,1,2.31,10.87,25.27,25.27,0,0,1-1.84,9.59,29.65,29.65,0,0,1-4.71,8,23.45,23.45,0,0,1-6.42,5.44,14.1,14.1,0,0,1-7,2,9.91,9.91,0,0,1-4.41-1.07,5.59,5.59,0,0,1-3-3.38A14.6,14.6,0,0,1,33,61a14,14,0,0,1-5.48,1.16,11.73,11.73,0,0,1-5-1,11.16,11.16,0,0,1-3.77-2.78,12.19,12.19,0,0,1-2.35-4.06,14.77,14.77,0,0,1-.81-5,27.61,27.61,0,0,1,1.54-8.84,30.63,30.63,0,0,1,4.32-8.37,24,24,0,0,1,6.68-6.24,16.06,16.06,0,0,1,8.69-2.43,11.59,11.59,0,0,1,5.65,1.45,9,9,0,0,1,3.94,4.18l1.28-3.93H53.5L44.86,51A27.38,27.38,0,0,0,44,53.64a6.73,6.73,0,0,0-.21,2.18,2.32,2.32,0,0,0,.64,1.49,2.54,2.54,0,0,0,1.84.56,8.18,8.18,0,0,0,5.14-2,19.24,19.24,0,0,0,4.37-5,28.2,28.2,0,0,0,3-6.72,24.55,24.55,0,0,0,1.11-7.11,21.9,21.9,0,0,0-2-9.42,21.33,21.33,0,0,0-5.31-7.11,23.51,23.51,0,0,0-7.7-4.45,27.57,27.57,0,0,0-9.25-1.54A26.26,26.26,0,0,0,16.18,23a28.37,28.37,0,0,0-5.61,9.07,30.1,30.1,0,0,0-2,11,28,28,0,0,0,2.1,10.87,27.62,27.62,0,0,0,5.78,8.82,27.31,27.31,0,0,0,8.65,5.95,26.49,26.49,0,0,0,10.79,2.18,28,28,0,0,0,12.71-3,27.06,27.06,0,0,0,5.48-3.68,28.41,28.41,0,0,0,4.49-4.92ZM28.85,56.76a7.94,7.94,0,0,0,5.48-2.4,24.18,24.18,0,0,0,4.49-5.78,33.38,33.38,0,0,0,3-7.19A24.39,24.39,0,0,0,43,34.67a6.49,6.49,0,0,0-1.63-4.37,5.39,5.39,0,0,0-4.28-1.88,9.88,9.88,0,0,0-6.16,2.1,19.15,19.15,0,0,0-4.67,5.22,28.16,28.16,0,0,0-3,6.68,22.59,22.59,0,0,0-1.07,6.46,9.18,9.18,0,0,0,1.71,5.48A5.72,5.72,0,0,0,28.85,56.76Z" transform="translate(-3.42 -10.27)"/></svg>