<?xml version="1.0" encoding="utf-8"?>
<!-- Generator: Adobe Illustrator 19.0.0, SVG Export Plug-In . SVG Version: 6.00 Build 0)  -->
<svg version="1.1" id="Layer_1" xmlns="http://www.w3.org/2000/svg" xmlns:xlink="http://www.w3.org/1999/xlink" x="0px" y="0px"
	 viewBox="-247 370.9 100 100" style="enable-background:new -247 370.9 100 100;" xml:space="preserve">
<style type="text/css">
	.st0{fill:#FFFFFF;}
</style>
<g>
	<path id="Facebook__x28_alt_x29_" class="st0" d="M-156.1,393.2c0-7-6.3-13.3-13.3-13.3h-53.1c-7,0-13.3,6.3-13.3,13.3v53.1
		c0,6.9,6.3,13.2,13.3,13.2h26.5v-30.1h-9.7v-13.2h9.7V411c0-8.9,6.7-17,15-17h10.8v13.3h-10.8c-1.2,0-2.5,1.4-2.5,3.6v5.3h13.3
		v13.3h-13.3v30h14.2c7,0,13.3-6.3,13.3-13.3L-156.1,393.2L-156.1,393.2z"/>
</g>
</svg>
