<?xml version="1.0" encoding="utf-8"?>
<!-- Generator: Adobe Illustrator 19.0.0, SVG Export Plug-In . SVG Version: 6.00 Build 0)  -->
<svg version="1.1" id="Layer_1" xmlns="http://www.w3.org/2000/svg" xmlns:xlink="http://www.w3.org/1999/xlink" x="0px" y="0px"
	 viewBox="-247 370.9 100 100" style="enable-background:new -247 370.9 100 100;" xml:space="preserve">
<style type="text/css">
	.st0{fill:#FFFFFF;}
</style>
<g>
	<g>
		<path class="st0" d="M-156,419.7c0,6,0.1,12,0,18.1c-0.2,12.1-9.4,21.5-21.5,21.7c-12.2,0.1-24.3,0.1-36.5,0
			c-12.1-0.1-21.4-9.6-21.5-21.7c-0.1-12-0.1-24.1,0-36.1c0.1-12.1,9.4-21.5,21.5-21.7c12.2-0.1,24.3-0.1,36.5,0
			c11.9,0.1,21.2,9.4,21.5,21.3C-155.9,407.5-156,413.6-156,419.7z M-195.8,387.2c-5.9,0-11.8-0.1-17.7,0
			c-8.7,0.1-14.8,6.2-14.8,14.8c-0.1,11.8-0.1,23.6,0,35.4c0.1,8.7,6.2,14.8,14.8,14.8c11.8,0.1,23.6,0.1,35.4,0
			c8.7-0.1,14.8-6.2,14.8-14.8c0.1-11.8,0.1-23.6,0-35.4c-0.1-8.7-6.2-14.7-14.8-14.8C-184,387.1-189.9,387.2-195.8,387.2z"/>
		<path class="st0" d="M-177.6,419.6c0,9.9-8,17.9-17.9,18c-9.8,0.1-18.3-8.3-18.2-18.2c0.1-9.9,8.1-17.9,18-17.9
			C-185.6,401.5-177.6,409.5-177.6,419.6z M-195.6,408.8c-6,0-10.8,4.7-10.9,10.6c-0.1,5.9,5.1,11.1,11,11
			c5.9-0.1,10.6-4.9,10.6-10.9C-184.9,413.5-189.6,408.8-195.6,408.8z"/>
		<path class="st0" d="M-175.9,395.1c2.4,0,4.3,1.9,4.3,4.3c0,2.4-1.9,4.4-4.3,4.4c-2.4,0-4.5-2-4.5-4.4
			C-180.3,397-178.3,395.1-175.9,395.1z"/>
	</g>
</g>
</svg>
